<svg xmlns="http://www.w3.org/2000/svg" xmlns:xlink="http://www.w3.org/1999/xlink" width="794" zoomAndPan="magnify" viewBox="0 0 594.95996 842.24997" height="1123" preserveAspectRatio="xMidYMid meet" version="1.2"><defs><clipPath id="0a6816b619"><path d="M 0.246094 0 L 594.675781 0 L 594.675781 841.5 L 0.246094 841.5 Z M 0.246094 0 "/></clipPath></defs><g id="03c2960427"><g clip-rule="nonzero" clip-path="url(#0a6816b619)"><path style=" stroke:none;fill-rule:nonzero;fill:#ffffff;fill-opacity:1;" d="M 0.246094 0 L 595.214844 0 L 595.214844 841.5 L 0.246094 841.5 Z M 0.246094 0 "/><path style=" stroke:none;fill-rule:nonzero;fill:#ff5800;fill-opacity:1;" d="M 0.246094 0 L 595.214844 0 L 595.214844 841.5 L 0.246094 841.5 Z M 0.246094 0 "/></g><path style=" stroke:none;fill-rule:nonzero;fill:#ffffff;fill-opacity:1;" d="M 480.289062 448.351562 C 478.839844 446.890625 476.480469 446.875 475.015625 448.320312 C 457.023438 466.09375 430.292969 489.09375 421.457031 496.628906 C 409.539062 481.390625 386.09375 461.925781 372.484375 451.726562 C 343.457031 429.953125 325.867188 425.308594 324.738281 425.042969 C 320.199219 424.421875 311.609375 429.488281 290.019531 444.175781 L 283.855469 448.351562 C 272.265625 456.128906 261.773438 453.425781 258.027344 449.03125 C 253.414062 443.617188 252.546875 429.976562 269.078125 414.605469 C 291.339844 393.910156 317.203125 377.566406 340.039062 369.761719 C 357.234375 363.871094 370.960938 365.671875 381.992188 367.121094 C 387.449219 367.839844 392.136719 368.449219 396.644531 368.152344 C 410.519531 367.199219 428.726562 355.117188 429.5 354.605469 C 431.210938 353.460938 431.671875 351.144531 430.527344 349.433594 C 429.375 347.726562 427.066406 347.246094 425.351562 348.40625 C 425.179688 348.519531 408.019531 359.890625 396.136719 360.707031 C 392.398438 360.972656 388.035156 360.394531 382.960938 359.722656 C 371.171875 358.171875 356.492188 356.25 337.621094 362.699219 C 330.269531 365.214844 323.167969 368.375 316.410156 371.855469 C 301.644531 360.460938 283.511719 361.984375 270.070312 363.226562 L 269.234375 363.300781 C 253.449219 364.765625 241.195312 363.066406 230.734375 357.980469 C 218.964844 352.265625 197.710938 343.378906 196.808594 343.003906 C 194.929688 342.203125 192.726562 343.101562 191.933594 345.003906 C 191.140625 346.90625 192.035156 349.09375 193.9375 349.886719 C 194.15625 349.976562 215.898438 359.070312 227.46875 364.691406 C 239.222656 370.398438 252.714844 372.304688 269.917969 370.734375 L 270.753906 370.652344 C 282.035156 369.609375 297.03125 368.261719 309.152344 375.777344 C 288.246094 387.691406 271.644531 402.03125 263.992188 409.140625 C 242.039062 429.566406 246.777344 447.328125 252.34375 453.867188 C 258.820312 461.46875 273.53125 464.273438 288.007812 454.546875 L 294.21875 450.339844 C 303.289062 444.171875 320.175781 432.6875 323.28125 432.351562 C 323.449219 432.394531 340.351562 436.949219 368.011719 457.695312 C 388.050781 472.71875 409.679688 492.316406 417.984375 504.390625 L 418.007812 504.4375 L 418.019531 504.445312 C 419.714844 506.917969 420.894531 509.097656 421.332031 510.828125 C 423.050781 517.621094 418.445312 524.359375 413.234375 527.246094 C 411.398438 528.253906 406.765625 530.230469 403.355469 526.667969 C 377.761719 499.949219 350.683594 479.269531 350.414062 479.058594 C 348.777344 477.8125 346.429688 478.132812 345.191406 479.769531 C 343.9375 481.410156 344.257812 483.75 345.898438 485 C 346.15625 485.195312 372.464844 505.3125 397.503906 531.351562 C 398.054688 532.84375 399.542969 538.40625 393.6875 544.546875 C 390.75 547.636719 387.886719 549.21875 385.175781 549.25 L 385.097656 549.253906 C 382.363281 549.253906 379.40625 547.6875 376.316406 544.59375 C 365.125 533.402344 333 504.84375 331.640625 503.636719 C 330.101562 502.261719 327.734375 502.402344 326.371094 503.945312 C 325 505.488281 325.148438 507.84375 326.683594 509.210938 C 327.011719 509.503906 360.003906 538.835938 371.042969 549.871094 C 373.007812 551.839844 375.015625 553.300781 377.039062 554.425781 C 376.46875 556.4375 374.941406 559.6875 370.867188 563.007812 C 366.277344 566.765625 361.386719 569.492188 352.121094 561.453125 C 343.71875 554.164062 339.390625 549.78125 339.347656 549.734375 C 337.90625 548.265625 335.550781 548.253906 334.074219 549.691406 C 332.609375 551.132812 332.585938 553.496094 334.027344 554.964844 C 334.210938 555.148438 338.574219 559.578125 347.230469 567.085938 C 349.140625 568.742188 350.9375 569.949219 352.683594 570.96875 C 352.476562 573.242188 351.296875 577.324219 345.78125 580.929688 C 340.507812 584.371094 333.195312 585.980469 319.53125 574.050781 C 321.3125 571.640625 322.859375 569.476562 324.015625 567.734375 C 329.582031 559.363281 331.476562 552.144531 329.800781 545.671875 C 328.222656 539.582031 323.515625 534.472656 315.804688 530.476562 C 315.660156 530.402344 315.503906 530.402344 315.351562 530.347656 C 315.128906 527.457031 313.902344 524.433594 311.089844 521.234375 C 305.917969 515.351562 297.945312 511.617188 294.546875 510.207031 C 293.902344 503.910156 288.957031 499.476562 286 496.828125 L 284.796875 495.742188 C 277.589844 489.03125 270.25 489.382812 266.09375 490.355469 C 265.65625 488.925781 265.023438 488.097656 264.890625 487.957031 C 264.527344 487.378906 255.550781 473.84375 242.316406 475.457031 C 233.757812 476.488281 221.394531 482.929688 211.816406 490.695312 C 205.59375 485.335938 188.386719 470.253906 175.519531 456.527344 C 161.769531 441.855469 144.980469 421.183594 144.8125 420.976562 C 143.511719 419.367188 141.140625 419.128906 139.566406 420.429688 C 137.964844 421.726562 137.71875 424.074219 139.015625 425.675781 C 139.191406 425.882812 156.136719 446.765625 170.066406 461.628906 C 182.714844 475.117188 199.375 489.800781 206.214844 495.714844 C 204.9375 497 203.738281 498.292969 202.695312 499.589844 C 192.597656 512.148438 195.96875 521.628906 204.136719 532 C 212.707031 542.886719 250.886719 576.621094 290.195312 591.679688 C 292.242188 592.460938 294.363281 592.839844 296.453125 592.839844 C 301.683594 592.839844 306.765625 590.484375 310.195312 586.171875 C 311.925781 583.996094 313.503906 581.980469 314.980469 580.074219 C 321.308594 585.585938 329.265625 590.921875 337.882812 590.917969 C 341.773438 590.917969 345.804688 589.828125 349.863281 587.175781 C 356.523438 582.824219 358.921875 577.6875 359.75 573.769531 C 360.792969 573.960938 361.8125 574.089844 362.78125 574.089844 C 368.140625 574.089844 372.382812 571.402344 375.582031 568.789062 C 380.949219 564.417969 383.164062 559.863281 384.113281 556.597656 C 384.441406 556.621094 384.765625 556.714844 385.089844 556.714844 L 385.273438 556.710938 C 390.058594 556.652344 394.714844 554.292969 399.09375 549.691406 C 403.816406 544.730469 405.238281 539.855469 405.433594 535.914062 C 406.316406 536.082031 407.222656 536.175781 408.144531 536.175781 C 410.96875 536.175781 413.941406 535.382812 416.851562 533.773438 C 424.691406 529.425781 431.226562 519.519531 428.558594 508.996094 C 428.085938 507.121094 427.121094 505.023438 425.765625 502.761719 C 434.058594 495.699219 461.707031 471.953125 480.261719 453.632812 C 481.726562 452.179688 481.742188 449.820312 480.292969 448.351562 Z M 304.359375 581.527344 C 301.582031 584.996094 296.984375 586.285156 292.863281 584.714844 C 254.90625 570.171875 218.207031 537.8125 209.996094 527.390625 C 202.390625 517.71875 202.039062 512.316406 208.507812 504.265625 C 216.253906 494.640625 233.4375 484.042969 243.207031 482.867188 C 251.992188 481.785156 258.550781 491.878906 258.753906 492.179688 C 259.34375 493.160156 259.335938 497.117188 252.234375 503.546875 C 241.820312 512.960938 232.941406 520.011719 232.851562 520.082031 C 231.234375 521.363281 230.964844 523.710938 232.246094 525.324219 C 233.53125 526.945312 235.882812 527.207031 237.488281 525.933594 C 237.574219 525.859375 246.636719 518.664062 257.230469 509.074219 C 261.804688 504.941406 264.238281 501.328125 265.457031 498.296875 C 265.644531 498.238281 265.839844 498.234375 266.019531 498.144531 C 266.09375 498.109375 272.867188 494.824219 279.710938 501.199219 L 281.019531 502.386719 C 286.851562 507.609375 289.945312 511.335938 283.753906 519.039062 C 275.222656 529.648438 266.472656 539.292969 259.738281 545.503906 C 258.222656 546.902344 258.128906 549.257812 259.527344 550.773438 C 260.261719 551.570312 261.261719 551.976562 262.265625 551.976562 C 263.171875 551.976562 264.082031 551.648438 264.796875 550.988281 C 271.789062 544.539062 280.816406 534.597656 289.566406 523.71875 C 291.257812 521.617188 292.410156 519.644531 293.214844 517.773438 C 296.519531 519.277344 301.953125 522.148438 305.480469 526.160156 C 308.875 530.019531 309.320312 532.8125 303.289062 540.109375 C 298.421875 546.003906 289.226562 556.976562 285.117188 561.875 C 283.789062 563.453125 283.996094 565.804688 285.574219 567.128906 C 286.273438 567.714844 287.128906 568.003906 287.972656 568.003906 C 289.035156 568.003906 290.09375 567.550781 290.828125 566.667969 C 294.953125 561.761719 304.164062 550.769531 309.042969 544.863281 C 310.890625 542.625 312.523438 540.304688 313.703125 537.902344 C 318.59375 540.707031 321.640625 543.929688 322.574219 547.539062 C 323.6875 551.84375 322.128906 557.097656 317.800781 563.609375 C 315.121094 567.644531 310.597656 573.679688 304.359375 581.527344 Z M 403.71875 425.695312 C 413.621094 424.859375 438.992188 404.945312 447.933594 397.34375 C 449.519531 396.007812 451.859375 396.203125 453.195312 397.769531 C 454.527344 399.339844 454.335938 401.691406 452.769531 403.027344 C 449.296875 405.980469 418.402344 431.941406 404.347656 433.128906 C 393.125 434.082031 377.15625 434.820312 376.996094 434.824219 L 376.828125 434.828125 C 374.84375 434.828125 373.191406 433.269531 373.105469 431.269531 C 373.007812 429.210938 374.597656 427.46875 376.660156 427.371094 C 376.8125 427.363281 392.644531 426.636719 403.71875 425.695312 Z M 315.792969 347.394531 C 316.265625 347.597656 316.765625 347.703125 317.269531 347.703125 C 317.773438 347.703125 318.277344 347.601562 318.75 347.394531 C 319.902344 346.898438 347.152344 334.925781 364.136719 307.484375 C 373.039062 293.105469 375.253906 278.871094 370.386719 267.398438 C 366.671875 258.652344 359.214844 252.664062 349.378906 250.535156 C 333.175781 247.019531 322.195312 254.34375 317.269531 258.796875 C 312.34375 254.34375 301.394531 247.003906 285.167969 250.535156 C 275.332031 252.664062 267.871094 258.652344 264.152344 267.398438 C 259.285156 278.871094 261.5 293.105469 270.40625 307.484375 C 287.390625 334.925781 314.640625 346.898438 315.792969 347.394531 Z M 271.023438 270.316406 C 273.765625 263.863281 279.347656 259.429688 286.742188 257.828125 C 289.136719 257.304688 291.390625 257.082031 293.488281 257.082031 C 306.71875 257.082031 313.984375 266.015625 314.328125 266.441406 C 315.035156 267.351562 316.097656 267.796875 317.277344 267.875 C 318.414062 267.875 319.492188 267.351562 320.207031 266.457031 C 320.605469 265.945312 330.289062 254.046875 347.804688 257.828125 C 355.195312 259.429688 360.777344 263.863281 363.515625 270.3125 C 367.355469 279.355469 365.269531 291.476562 357.796875 303.558594 C 344.242188 325.449219 323.019531 337.007812 317.269531 339.847656 C 311.523438 337.019531 290.332031 325.515625 276.746094 303.558594 C 269.269531 291.476562 267.183594 279.359375 271.023438 270.316406 Z M 271.023438 270.316406 "/></g></svg>