<svg xmlns="http://www.w3.org/2000/svg" xmlns:xlink="http://www.w3.org/1999/xlink" width="794" zoomAndPan="magnify" viewBox="0 0 594.95996 842.24997" height="1123" preserveAspectRatio="xMidYMid meet" version="1.2"><defs><clipPath id="a2b52f5c57"><path d="M 0.246094 0 L 594.675781 0 L 594.675781 841.5 L 0.246094 841.5 Z M 0.246094 0 "/></clipPath><clipPath id="080e07781c"><path d="M 383.464844 307.117188 L 416.183594 307.117188 L 416.183594 341.785156 L 383.464844 341.785156 Z M 383.464844 307.117188 "/></clipPath><clipPath id="eac2b9dd9e"><path d="M 248 262.761719 L 389 262.761719 L 389 484 L 248 484 Z M 248 262.761719 "/></clipPath><clipPath id="fb4a57f180"><path d="M 178.667969 484.308594 L 287.808594 484.308594 L 287.808594 577.828125 L 178.667969 577.828125 Z M 178.667969 484.308594 "/></clipPath></defs><g id="0a21d25aae"><g clip-rule="nonzero" clip-path="url(#a2b52f5c57)"><path style=" stroke:none;fill-rule:nonzero;fill:#ffffff;fill-opacity:1;" d="M 0.246094 0 L 595.214844 0 L 595.214844 841.5 L 0.246094 841.5 Z M 0.246094 0 "/><path style=" stroke:none;fill-rule:nonzero;fill:#ff5800;fill-opacity:1;" d="M 0.246094 0 L 595.214844 0 L 595.214844 841.5 L 0.246094 841.5 Z M 0.246094 0 "/></g><g clip-rule="nonzero" clip-path="url(#080e07781c)"><path style=" stroke:none;fill-rule:nonzero;fill:#ffffff;fill-opacity:1;" d="M 405.707031 341.304688 C 404.140625 341.304688 402.59375 340.585938 401.589844 339.230469 C 399.910156 336.957031 400.394531 333.753906 402.664062 332.078125 C 404.472656 330.738281 405.617188 328.832031 405.890625 326.703125 C 406.152344 324.636719 405.550781 322.582031 404.199219 320.914062 C 401.230469 317.257812 395.675781 316.601562 391.816406 319.453125 C 389.546875 321.128906 386.34375 320.648438 384.667969 318.375 C 382.988281 316.105469 383.46875 312.902344 385.738281 311.222656 C 393.933594 305.171875 405.777344 306.628906 412.140625 314.46875 C 415.273438 318.328125 416.652344 323.128906 416.035156 327.992188 C 415.410156 332.917969 412.820312 337.289062 408.742188 340.300781 C 407.828125 340.980469 406.761719 341.304688 405.707031 341.304688 "/></g><path style=" stroke:none;fill-rule:nonzero;fill:#ffffff;fill-opacity:1;" d="M 383.648438 324.242188 C 382.082031 324.242188 380.535156 323.523438 379.53125 322.167969 C 377.851562 319.894531 378.335938 316.695312 380.605469 315.015625 L 385.738281 311.222656 C 388.007812 309.542969 391.210938 310.023438 392.890625 312.296875 C 394.570312 314.566406 394.089844 317.769531 391.816406 319.445312 L 386.683594 323.242188 C 385.769531 323.917969 384.707031 324.242188 383.648438 324.242188 "/><path style=" stroke:none;fill-rule:nonzero;fill:#ffffff;fill-opacity:1;" d="M 383.648438 357.597656 C 382.082031 357.597656 380.535156 356.878906 379.53125 355.523438 C 377.851562 353.25 378.335938 350.046875 380.605469 348.371094 L 402.664062 332.078125 C 404.9375 330.398438 408.140625 330.878906 409.816406 333.152344 C 411.496094 335.421875 411.011719 338.625 408.742188 340.300781 L 386.683594 356.59375 C 385.765625 357.273438 384.703125 357.597656 383.648438 357.597656 "/><g clip-rule="nonzero" clip-path="url(#eac2b9dd9e)"><path style=" stroke:none;fill-rule:nonzero;fill:#ffffff;fill-opacity:1;" d="M 367.839844 483.265625 L 271.769531 483.265625 C 270.316406 483.265625 268.925781 482.644531 267.957031 481.558594 C 266.988281 480.472656 266.527344 479.027344 266.691406 477.578125 C 269.640625 451.566406 254.371094 427.75 254.214844 427.515625 C 253.515625 426.441406 253.246094 425.136719 253.460938 423.871094 C 253.507812 423.601562 258.03125 396.726562 259.535156 375.660156 C 259.0625 367.773438 256.113281 361.796875 250.765625 357.894531 C 249.445312 356.929688 248.667969 355.394531 248.667969 353.765625 L 248.667969 283.742188 C 248.667969 272.207031 258.050781 262.820312 269.585938 262.820312 L 367.839844 262.820312 C 379.375 262.820312 388.757812 272.207031 388.757812 283.742188 L 388.757812 369.226562 C 388.757812 372.050781 386.46875 374.339844 383.644531 374.339844 C 380.820312 374.339844 378.53125 372.050781 378.53125 369.226562 L 378.53125 283.742188 C 378.53125 277.84375 373.734375 273.046875 367.839844 273.046875 L 269.585938 273.046875 C 263.691406 273.046875 258.894531 277.84375 258.894531 283.742188 L 258.894531 351.3125 C 263.890625 355.683594 269.128906 363.148438 269.765625 375.433594 C 269.777344 375.640625 269.773438 375.847656 269.757812 376.054688 C 268.453125 394.652344 264.9375 417.0625 263.859375 423.683594 C 267.355469 429.636719 277.996094 449.753906 277.261719 473.039062 L 367.839844 473.039062 C 373.734375 473.039062 378.53125 468.242188 378.53125 462.347656 L 378.53125 453.324219 C 378.53125 450.503906 380.820312 448.210938 383.644531 448.210938 C 386.46875 448.210938 388.757812 450.503906 388.757812 453.324219 L 388.757812 462.347656 C 388.757812 473.882812 379.375 483.265625 367.839844 483.265625 "/></g><path style=" stroke:none;fill-rule:nonzero;fill:#ffffff;fill-opacity:1;" d="M 276.371094 546.578125 C 275.367188 546.578125 274.359375 546.285156 273.476562 545.675781 C 271.148438 544.074219 270.558594 540.890625 272.160156 538.5625 L 280.453125 526.511719 C 281.058594 525.636719 281.917969 524.972656 282.914062 524.609375 C 283.363281 524.445312 328.464844 507.636719 343.101562 477.535156 C 344.335938 474.992188 347.398438 473.9375 349.9375 475.171875 C 352.476562 476.40625 353.535156 479.46875 352.296875 482.007812 C 337.304688 512.84375 296.613281 530.21875 287.976562 533.621094 L 280.585938 544.363281 C 279.59375 545.804688 277.996094 546.578125 276.371094 546.578125 "/><path style=" stroke:none;fill-rule:nonzero;fill:#ffffff;fill-opacity:1;" d="M 210.9375 497.941406 C 209.855469 497.941406 208.757812 497.59375 207.832031 496.882812 C 205.59375 495.164062 205.164062 491.957031 206.882812 489.714844 L 213.355469 481.273438 C 213.535156 468.527344 214.578125 423.570312 220.382812 412.3125 C 226.480469 400.449219 234.144531 380.976562 235.976562 355.597656 C 236.230469 352.046875 238.261719 348.839844 241.410156 347.035156 C 244.667969 345.167969 248.621094 345.050781 251.988281 346.71875 C 253.675781 347.550781 255.300781 348.535156 256.804688 349.640625 C 262.3125 353.660156 269.035156 361.40625 269.765625 375.433594 C 269.777344 375.640625 269.773438 375.847656 269.757812 376.054688 C 268.453125 394.652344 264.9375 417.0625 263.859375 423.683594 C 267.636719 430.117188 279.757812 453.09375 276.855469 478.730469 C 276.460938 482.222656 275.78125 485.6875 274.84375 489.035156 C 274.082031 491.757812 271.257812 493.34375 268.539062 492.578125 C 265.820312 491.816406 264.234375 488.992188 264.996094 486.273438 C 265.789062 483.453125 266.359375 480.53125 266.691406 477.582031 C 269.640625 451.566406 254.371094 427.75 254.214844 427.515625 C 253.515625 426.441406 253.246094 425.136719 253.460938 423.871094 C 253.507812 423.601562 258.03125 396.726562 259.535156 375.660156 C 259.0625 367.773438 256.113281 361.796875 250.765625 357.894531 C 249.726562 357.132812 248.617188 356.460938 247.453125 355.886719 C 247.011719 355.667969 246.636719 355.832031 246.496094 355.910156 C 246.195312 356.082031 246.183594 356.265625 246.179688 356.328125 C 244.21875 383.4375 236.015625 404.28125 229.476562 416.996094 C 225.609375 424.492188 223.796875 461.515625 223.558594 483.089844 C 223.546875 484.195312 223.179688 485.269531 222.507812 486.144531 L 215 495.9375 C 213.996094 497.25 212.476562 497.941406 210.9375 497.941406 "/><path style=" stroke:none;fill-rule:nonzero;fill:#ffffff;fill-opacity:1;" d="M 387.933594 429.832031 C 387.183594 429.832031 386.417969 430 385.703125 430.347656 L 379.085938 433.578125 C 377.355469 434.417969 376.054688 435.886719 375.425781 437.707031 C 374.800781 439.527344 374.917969 441.484375 375.765625 443.210938 L 376.238281 444.195312 C 377.980469 447.765625 382.304688 449.253906 385.878906 447.511719 L 391.65625 444.695312 C 393.109375 443.988281 394.199219 442.757812 394.726562 441.234375 C 395.25 439.707031 395.152344 438.066406 394.445312 436.617188 L 392.539062 432.703125 C 391.652344 430.890625 389.828125 429.832031 387.933594 429.832031 Z M 382.746094 458.46875 C 376.285156 458.46875 370.0625 454.863281 367.046875 448.675781 L 366.566406 447.695312 C 364.527344 443.507812 364.242188 438.777344 365.757812 434.375 C 367.273438 429.972656 370.417969 426.421875 374.601562 424.382812 L 381.21875 421.15625 C 388.824219 417.449219 398.027344 420.621094 401.730469 428.226562 L 403.636719 432.136719 C 405.542969 436.042969 405.8125 440.457031 404.394531 444.566406 C 402.976562 448.675781 400.046875 451.988281 396.140625 453.890625 L 390.359375 456.707031 C 387.90625 457.902344 385.308594 458.46875 382.746094 458.46875 "/><path style=" stroke:none;fill-rule:nonzero;fill:#ffffff;fill-opacity:1;" d="M 387.933594 401.613281 C 387.183594 401.613281 386.421875 401.777344 385.703125 402.128906 L 379.085938 405.355469 C 377.355469 406.199219 376.054688 407.664062 375.425781 409.484375 C 374.800781 411.304688 374.917969 413.261719 375.765625 414.992188 L 376.238281 415.972656 C 377.082031 417.703125 378.550781 419 380.371094 419.628906 C 382.191406 420.253906 384.148438 420.136719 385.878906 419.292969 L 391.65625 416.476562 C 394.65625 415.015625 395.902344 411.390625 394.445312 408.394531 L 392.539062 404.484375 C 391.652344 402.671875 389.828125 401.613281 387.933594 401.613281 Z M 382.734375 430.257812 C 380.820312 430.257812 378.902344 429.941406 377.039062 429.296875 C 372.632812 427.78125 369.085938 424.640625 367.046875 420.453125 L 366.566406 419.472656 C 364.527344 415.289062 364.242188 410.554688 365.757812 406.152344 C 367.273438 401.75 370.417969 398.203125 374.601562 396.160156 L 381.21875 392.9375 C 388.824219 389.230469 398.027344 392.398438 401.730469 400.003906 L 403.636719 403.914062 C 407.570312 411.980469 404.203125 421.738281 396.140625 425.667969 L 390.359375 428.488281 C 387.945312 429.664062 385.347656 430.257812 382.734375 430.257812 "/><path style=" stroke:none;fill-rule:nonzero;fill:#ffffff;fill-opacity:1;" d="M 387.9375 373.386719 C 387.171875 373.386719 386.410156 373.5625 385.703125 373.90625 L 379.085938 377.132812 C 377.355469 377.976562 376.054688 379.445312 375.425781 381.265625 C 374.800781 383.085938 374.917969 385.042969 375.765625 386.769531 L 376.238281 387.75 C 377.082031 389.480469 378.550781 390.777344 380.371094 391.410156 C 382.191406 392.035156 384.148438 391.914062 385.878906 391.074219 L 391.65625 388.253906 C 394.65625 386.792969 395.902344 383.171875 394.445312 380.171875 L 392.539062 376.265625 C 391.941406 375.039062 390.902344 374.113281 389.609375 373.671875 C 389.0625 373.484375 388.5 373.386719 387.9375 373.386719 Z M 382.734375 402.035156 C 380.820312 402.035156 378.902344 401.71875 377.039062 401.074219 C 372.632812 399.558594 369.085938 396.417969 367.046875 392.230469 L 366.566406 391.253906 C 364.527344 387.066406 364.242188 382.335938 365.757812 377.929688 C 367.273438 373.527344 370.417969 369.980469 374.601562 367.9375 L 381.21875 364.714844 C 384.90625 362.917969 389.066406 362.664062 392.941406 364 C 396.8125 365.335938 399.9375 368.097656 401.734375 371.78125 L 403.636719 375.691406 C 407.570312 383.757812 404.203125 393.515625 396.140625 397.445312 L 390.359375 400.265625 C 387.945312 401.441406 385.347656 402.035156 382.734375 402.035156 "/><g clip-rule="nonzero" clip-path="url(#fb4a57f180)"><path style=" stroke:none;fill-rule:nonzero;fill:#ffffff;fill-opacity:1;" d="M 268.175781 577.828125 C 267.117188 577.828125 266.046875 577.496094 265.128906 576.816406 C 262.863281 575.132812 262.390625 571.929688 264.078125 569.664062 L 276.40625 553.082031 C 277.78125 551.226562 277.394531 548.601562 275.542969 547.226562 L 206.070312 495.570312 C 205.171875 494.90625 204.074219 494.625 202.964844 494.789062 C 201.859375 494.953125 200.882812 495.535156 200.214844 496.433594 L 187.886719 513.015625 C 186.203125 515.285156 183 515.753906 180.730469 514.066406 C 178.464844 512.382812 177.992188 509.179688 179.679688 506.914062 L 192.007812 490.332031 C 194.304688 487.242188 197.664062 485.234375 201.472656 484.671875 C 205.285156 484.109375 209.082031 485.066406 212.171875 487.363281 L 281.644531 539.015625 C 288.023438 543.757812 289.355469 552.804688 284.613281 559.183594 L 272.285156 575.765625 C 271.28125 577.113281 269.738281 577.828125 268.175781 577.828125 "/></g><path style=" stroke:none;fill-rule:nonzero;fill:#ffffff;fill-opacity:1;" d="M 327.542969 294.429688 L 309.875 294.429688 C 307.050781 294.429688 304.761719 292.140625 304.761719 289.316406 C 304.761719 286.492188 307.050781 284.203125 309.875 284.203125 L 327.542969 284.203125 C 330.367188 284.203125 332.65625 286.492188 332.65625 289.316406 C 332.65625 292.140625 330.367188 294.429688 327.542969 294.429688 "/><path style=" stroke:none;fill-rule:nonzero;fill:#ffffff;fill-opacity:1;" d="M 382.335938 314.1875 L 253.773438 314.1875 C 250.949219 314.1875 248.660156 311.898438 248.660156 309.074219 C 248.660156 306.25 250.949219 303.960938 253.773438 303.960938 L 382.335938 303.960938 C 385.160156 303.960938 387.449219 306.25 387.449219 309.074219 C 387.449219 311.898438 385.160156 314.1875 382.335938 314.1875 "/><path style=" stroke:none;fill-rule:nonzero;fill:#ffffff;fill-opacity:1;" d="M 370.109375 447.320312 L 266.820312 447.320312 C 263.996094 447.320312 261.707031 445.027344 261.707031 442.203125 C 261.707031 439.378906 263.996094 437.089844 266.820312 437.089844 L 370.109375 437.089844 C 372.933594 437.089844 375.222656 439.378906 375.222656 442.203125 C 375.222656 445.027344 372.933594 447.320312 370.109375 447.320312 "/><path style=" stroke:none;fill-rule:nonzero;fill:#ffffff;fill-opacity:1;" d="M 206.660156 509.132812 C 202.816406 509.132812 199.6875 512.261719 199.6875 516.105469 C 199.6875 519.953125 202.816406 523.082031 206.660156 523.082031 C 210.503906 523.082031 213.632812 519.953125 213.632812 516.105469 C 213.632812 512.261719 210.503906 509.132812 206.660156 509.132812 "/><path style=" stroke:none;fill-rule:nonzero;fill:#ffffff;fill-opacity:1;" d="M 286.78125 356.519531 L 280.398438 356.519531 L 280.398438 338.757812 L 298.164062 338.757812 L 298.164062 345.140625 L 286.78125 345.140625 L 286.78125 356.519531 "/><path style=" stroke:none;fill-rule:nonzero;fill:#ffffff;fill-opacity:1;" d="M 355.714844 356.519531 L 349.332031 356.519531 L 349.332031 345.140625 L 337.949219 345.140625 L 337.949219 338.757812 L 355.714844 338.757812 L 355.714844 356.519531 "/><path style=" stroke:none;fill-rule:nonzero;fill:#ffffff;fill-opacity:1;" d="M 298.164062 414.070312 L 280.398438 414.070312 L 280.398438 396.308594 L 286.78125 396.308594 L 286.78125 407.6875 L 298.164062 407.6875 L 298.164062 414.070312 "/><path style=" stroke:none;fill-rule:nonzero;fill:#ffffff;fill-opacity:1;" d="M 355.714844 414.070312 L 337.949219 414.070312 L 337.949219 407.6875 L 349.332031 407.6875 L 349.332031 396.308594 L 355.714844 396.308594 L 355.714844 414.070312 "/><path style=" stroke:none;fill-rule:nonzero;fill:#ffffff;fill-opacity:1;" d="M 308.144531 366.503906 L 299.210938 366.503906 L 299.210938 357.566406 L 308.144531 357.566406 Z M 292.832031 351.1875 L 292.832031 372.890625 L 314.535156 372.890625 L 314.535156 351.1875 L 292.832031 351.1875 "/><path style=" stroke:none;fill-rule:nonzero;fill:#ffffff;fill-opacity:1;" d="M 336.902344 366.503906 L 327.96875 366.503906 L 327.96875 357.566406 L 336.902344 357.566406 Z M 321.582031 351.1875 L 321.582031 372.890625 L 343.28125 372.890625 L 343.28125 351.1875 L 321.582031 351.1875 "/><path style=" stroke:none;fill-rule:nonzero;fill:#ffffff;fill-opacity:1;" d="M 308.144531 395.261719 L 299.210938 395.261719 L 299.210938 386.324219 L 308.144531 386.324219 Z M 292.832031 379.9375 L 292.832031 401.640625 L 314.535156 401.640625 L 314.535156 379.9375 L 292.832031 379.9375 "/><path style=" stroke:none;fill-rule:nonzero;fill:#ffffff;fill-opacity:1;" d="M 335.804688 394.582031 L 335.804688 401.816406 L 343.039062 401.816406 L 343.039062 387.347656 L 335.804688 387.347656 L 335.804688 380.113281 L 321.335938 380.113281 L 321.335938 387.347656 L 328.570312 387.347656 L 328.570312 394.582031 L 335.804688 394.582031 "/><path style=" stroke:none;fill-rule:nonzero;fill:#ffffff;fill-opacity:1;" d="M 321.335938 401.816406 L 328.570312 401.816406 L 328.570312 394.582031 L 321.335938 394.582031 L 321.335938 401.816406 "/></g></svg>